# xmcd
#
# Track frame offsets:
#	150
#	20867
#	45960
#	66545
#	86955
#	109430
#	127152
#	144325
#	163945
#	185535
#	200562
#
# Disc length: 2855 seconds
#
# Revision: 1
# Processed by: cddbd v1.4PL0 Copyright (c) Steve Scherf et al.
# Submitted via: audiograbber 1.81.03
#
DISCID=ae0b250b
DTITLE=Shawn Pittman - Somthing's Gotta Give
DYEAR=1999
DGENRE=Blues
TTITLE0=Something's Gotta Give
TTITLE1=Tell Me Why
TTITLE2=Just A Game
TTITLE3=Get Started
TTITLE4=Come On Over
TTITLE5=East Side Groove
TTITLE6=Something To Remember You By
TTITLE7=Payin' The Price
TTITLE8=Make It Through
TTITLE9=Cruisin'
TTITLE10=That First Drink
EXTD=
EXTT0=
EXTT1=
EXTT2=
EXTT3=
EXTT4=
EXTT5=
EXTT6=
EXTT7=
EXTT8=
EXTT9=
EXTT10=
PLAYORDER=
